<svg xmlns="http://www.w3.org/2000/svg" width="140" height="140" viewBox="0 0 140 140"><defs><linearGradient id="t" x1="0" y1="0" x2="1" y2="1"><stop offset="0" stop-color="#d83b17"/><stop offset="1" stop-color="#a82a0c"/></linearGradient><radialGradient id="g" cx=".28" cy=".18" r=".75"><stop offset="0" stop-color="#fff" stop-opacity=".38"/><stop offset="1" stop-color="#fff" stop-opacity="0"/></radialGradient><linearGradient id="f" x1="0" y1="0" x2="0" y2="1"><stop offset="0" stop-color="#fff"/><stop offset="1" stop-color="#dfe5f5"/></linearGradient><linearGradient id="h" x1="0" y1="0" x2="0" y2="1"><stop offset="0" stop-color="#fff" stop-opacity=".95"/><stop offset="1" stop-color="#fff" stop-opacity="0"/></linearGradient><radialGradient id="d" cx=".35" cy=".3" r=".8"><stop offset="0" stop-color="#ea937f"/><stop offset=".55" stop-color="#d83b17"/><stop offset="1" stop-color="#a82a0c"/></radialGradient><clipPath id="c"><rect width="140" height="140" rx="36"/></clipPath><filter id="s" x="-20%" y="-20%" width="140%" height="160%"><feGaussianBlur stdDeviation="4"/></filter></defs><rect width="140" height="140" rx="36" fill="url(#t)"/><rect width="140" height="140" rx="36" fill="url(#g)"/><path d="M30 52c0-15 11-26 26-26h28c15 0 26 11 26 26v12c0 15-11 26-26 26H66l-20 16c-3 2-7-1-6-4l3-12c-8-4-13-13-13-22z" transform="translate(2 13)" fill="#000" opacity=".32" filter="url(#s)"/><g fill="#000" opacity=".28"><path d="M30 52c0-15 11-26 26-26h28c15 0 26 11 26 26v12c0 15-11 26-26 26H66l-20 16c-3 2-7-1-6-4l3-12c-8-4-13-13-13-22z" transform="translate(0 7)"/></g><path d="M30 52c0-15 11-26 26-26h28c15 0 26 11 26 26v12c0 15-11 26-26 26H66l-20 16c-3 2-7-1-6-4l3-12c-8-4-13-13-13-22z" transform="translate(0 7)" fill="#fff" opacity=".55"/><path d="M30 52c0-15 11-26 26-26h28c15 0 26 11 26 26v12c0 15-11 26-26 26H66l-20 16c-3 2-7-1-6-4l3-12c-8-4-13-13-13-22z" fill="url(#f)"/><path d="M40 44c3-8 9-11 17-11h26c8 0 14 3 17 11c-12-4-48-4-60 0z" fill="url(#h)" opacity=".9"/><circle cx="53" cy="62" r="7.5" fill="#000" opacity=".12"/><circle cx="53" cy="60" r="7.5" fill="url(#d)"/><circle cx="51" cy="57.6" r="2" fill="#fff" opacity=".85"/><circle cx="70" cy="62" r="7.5" fill="#000" opacity=".12"/><circle cx="70" cy="60" r="7.5" fill="url(#d)"/><circle cx="68" cy="57.6" r="2" fill="#fff" opacity=".85"/><circle cx="87" cy="62" r="7.5" fill="#000" opacity=".12"/><circle cx="87" cy="60" r="7.5" fill="url(#d)"/><circle cx="85" cy="57.6" r="2" fill="#fff" opacity=".85"/><path d="M113 17l3 8 8 3-8 3-3 8-3-8-8-3 8-3z" fill="#fff" opacity=".95"/></svg>
